# xmcd CD database file
#
# Track frame offsets:
#	150
#	18264
#	33464
#	53983
#	70776
#	96018
#	115056
#	138026
#	166973
#	192047
#
# Disc length: 2829 seconds
#
# Revision: 0
# Processed by: cddbd v1.5.2PL0 Copyright (c) Steve Scherf et al.
# Submitted via: CDex 1.51
#
DISCID=780b0b0a
DTITLE=Next Jazz - Next Generation North Sea Jazz Festival Cd1/5
DYEAR=2011
DGENRE=Jazz
TTITLE0=Raul Midón - Next Generation
TTITLE1=José James - Autumn in New York
TTITLE2=Yuri Honing - Swallow
TTITLE3=Trombone Shorty - Something beautiful
TTITLE4=Chris Botti - Glad to be unhappy
TTITLE5=Cole Porter - I get a kick out of you
TTITLE6=Till Brönner - If I saw you tomorrow
TTITLE7=Gerald Clayton - Two heads one pillow
TTITLE8=Julian Lage - 233 Butler
TTITLE9=Me' Shell Ndegeocello - Relief: A Stripper Classic
EXTD=YEAR: 2011
EXTT0=
EXTT1=
EXTT2=
EXTT3=
EXTT4=
EXTT5=
EXTT6=
EXTT7=
EXTT8=
EXTT9=
PLAYORDER=
